<svg xmlns="http://www.w3.org/2000/svg" width="1200" height="500" viewBox="0 0 1200 500" role="img" aria-label="Workflow overview placeholder">
  <rect width="1200" height="500" fill="#0F172A"/>
  <text x="600" y="45" text-anchor="middle" fill="#F8FAFC" font-family="Segoe UI, system-ui, sans-serif" font-size="26" font-weight="700">End-to-End Booking Workflow</text>
  <!-- Flow nodes -->
  <g font-family="Segoe UI, system-ui, sans-serif" font-size="14" fill="#F1F5F9">
    <rect x="40" y="120" width="160" height="56" rx="8" fill="#334155" stroke="#64748B"/>
    <text x="120" y="154" text-anchor="middle">Guest Inquiry</text>
    <text x="220" y="154" fill="#64748B" font-size="20">ĺ</text>
    <rect x="240" y="120" width="160" height="56" rx="8" fill="#5B4FFF"/>
    <text x="320" y="154" text-anchor="middle">Voice Agent</text>
    <text x="420" y="154" fill="#64748B" font-size="20">ĺ</text>
    <rect x="440" y="120" width="160" height="56" rx="8" fill="#FF6B35"/>
    <text x="520" y="154" text-anchor="middle">Check Availability</text>
    <text x="620" y="154" fill="#64748B" font-size="20">ĺ</text>
    <rect x="640" y="120" width="160" height="56" rx="8" fill="#00C896"/>
    <text x="720" y="154" text-anchor="middle">Validate Dates</text>
    <text x="820" y="154" fill="#64748B" font-size="20">ĺ</text>
    <rect x="840" y="120" width="160" height="56" rx="8" fill="#2D9CDB"/>
    <text x="920" y="154" text-anchor="middle">Suggest Alternatives</text>
    <text x="1020" y="154" fill="#64748B" font-size="20">ĺ</text>
    <rect x="1040" y="120" width="120" height="56" rx="8" fill="#EA4B71"/>
    <text x="1100" y="154" text-anchor="middle">Book Room</text>
  </g>
  <!-- Demo highlights -->
  <rect x="80" y="240" width="1040" height="160" rx="12" fill="#1E293B" stroke="#334155"/>
  <text x="600" y="280" text-anchor="middle" fill="#94A3B8" font-family="Segoe UI, system-ui, sans-serif" font-size="16">Demo showcases (see demo/AI-Voice-Receptionist-Demo.mp4)</text>
  <text x="600" y="320" text-anchor="middle" fill="#CBD5E1" font-family="Segoe UI, system-ui, sans-serif" font-size="14">Room discovery Ě Availability checks Ě Guest count handling</text>
  <text x="600" y="350" text-anchor="middle" fill="#CBD5E1" font-family="Segoe UI, system-ui, sans-serif" font-size="14">Alternative room suggestions Ě Reservation creation Ě Workflow automation</text>
  <text x="600" y="450" text-anchor="middle" fill="#64748B" font-family="Segoe UI, system-ui, sans-serif" font-size="13">Placeholder  replace with sanitized n8n screenshot: assets/workflow-overview.png</text>
</svg>
